<?xml version="1.0" encoding="UTF-8" standalone="no"?>
<!DOCTYPE svg PUBLIC "-//W3C//DTD SVG 1.1//EN" "http://www.w3.org/Graphics/SVG/1.1/DTD/svg11.dtd">
<!-- Created with Linearity Curve (http://linearity.io/curve) -->
<svg height="512.0pt" stroke-miterlimit="10" style="fill-rule:nonzero;clip-rule:evenodd;stroke-linecap:round;stroke-linejoin:round;" version="1.1" viewBox="0 0 512 512" width="512.0pt" xml:space="preserve" xmlns="http://www.w3.org/2000/svg" xmlns:vectornator="http://vectornator.io" xmlns:xlink="http://www.w3.org/1999/xlink">
<defs/>
<g id="Layer-1" vectornator:layerName="Layer 1">
<g opacity="1" vectornator:layerName="Group 1">
<path d="M294.428 111.56C287.26 106.782 279.494 101.235 271.132 94.9202C262.769 88.6055 255.174 82.2055 248.348 75.7202C245.276 72.6482 244.252 69.8322 245.276 67.2722C246.3 64.7122 249.542 63.7735 255.004 64.4562C266.609 65.4802 276.166 66.7602 283.676 68.2962C291.185 69.8322 297.158 71.9655 301.596 74.6962C306.033 77.4268 309.105 80.7548 310.812 84.6802C312.518 88.6055 313.201 93.4695 312.86 99.2722C312.518 106.099 310.385 110.536 306.46 112.584C302.534 114.632 298.524 114.291 294.428 111.56ZM146.46 268.744C151.238 245.875 154.396 225.48 155.932 207.56C157.468 189.64 157.382 175.048 155.676 163.784C152.604 163.784 149.532 163.614 146.46 163.272C143.388 162.931 140.486 162.419 137.756 161.736C131.612 159.688 129.222 157.214 130.588 154.312C131.953 151.411 136.049 149.79 142.876 149.448C154.14 148.766 167.11 147.827 181.788 146.632C196.465 145.438 210.801 143.816 224.796 141.768C254.15 137.331 278.982 133.235 299.292 129.48C319.601 125.726 336.753 121.971 350.748 118.216C363.718 114.462 374.129 112.328 381.98 111.816C389.83 111.304 396.145 111.731 400.924 113.096C412.87 116.168 418.929 120.435 419.1 125.896C419.27 131.358 414.065 134.771 403.484 136.136C381.98 138.867 360.561 141.598 339.228 144.328C317.894 147.059 299.206 149.79 283.164 152.52C276.678 153.544 268.998 154.654 260.124 155.848C251.249 157.043 242.033 158.152 232.476 159.176C222.918 160.2 213.446 161.054 204.06 161.736C194.673 162.419 186.396 162.931 179.228 163.272C187.42 168.392 192.028 172.744 193.052 176.328C194.076 179.912 192.881 184.606 189.468 190.408C188.444 191.774 187.505 193.736 186.652 196.296C185.798 198.856 184.604 203.635 183.068 210.632C181.532 217.63 179.484 227.87 176.924 241.352C174.364 254.835 170.865 273.182 166.428 296.392C163.356 312.776 158.662 329.16 152.348 345.544C146.033 361.928 138.353 377.63 129.308 392.648C120.262 407.667 109.937 421.576 98.3317 434.376C86.7263 447.176 74.097 458.355 60.4437 467.912C52.9343 473.032 48.4117 474.568 46.8757 472.52C45.3397 470.472 48.1557 465.523 55.3237 457.672C76.145 434.803 93.9797 408.947 108.828 380.104C123.676 351.262 135.025 319.774 142.876 285.64C142.212 285.793 148.779 263.591 146.46 268.744ZM221.212 372.68C215.409 369.267 210.204 365.086 205.596 360.136C200.988 355.187 195.953 349.299 190.492 342.472C187.761 338.718 186.993 335.987 188.188 334.28C189.382 332.574 191.686 332.062 195.1 332.744C210.118 335.134 220.785 338.547 227.1 342.984C233.414 347.422 236.572 353.224 236.572 360.392C236.572 374.387 231.452 378.483 221.212 372.68ZM340.508 348.616C335.729 351.006 332.486 350.92 330.78 348.36C329.073 345.8 330.097 343.326 333.852 340.936C347.846 332.062 358.172 324.296 364.828 317.64C371.484 310.984 375.494 304.926 376.86 299.464C377.884 294.686 380.444 292.296 384.54 292.296C388.636 292.296 395.121 296.222 403.996 304.072C411.505 310.899 414.833 315.934 413.98 319.176C413.126 322.419 410.652 324.382 406.556 325.064C402.801 325.747 398.876 326.6 394.78 327.624C390.684 328.648 386.161 330.014 381.212 331.72C376.262 333.427 370.46 335.646 363.804 338.376C357.148 341.107 349.382 344.52 340.508 348.616ZM367.644 277.96C363.548 275.23 357.148 270.792 348.444 264.648C339.74 258.504 330.438 251.848 320.54 244.68C317.809 242.974 316.7 240.926 317.212 238.536C317.724 236.147 319.857 235.294 323.612 235.976C334.876 237.683 344.177 239.39 351.516 241.096C358.854 242.803 364.742 244.851 369.18 247.24C373.617 249.63 376.945 252.275 379.164 255.176C381.382 258.078 382.833 261.576 383.516 265.672C384.198 270.451 382.918 274.376 379.676 277.448C376.433 280.52 372.422 280.691 367.644 277.96ZM305.692 217.032C302.278 239.902 292.892 259.102 277.532 274.632C262.172 290.163 242.716 300.659 219.164 306.12C214.385 307.144 211.569 306.632 210.716 304.584C209.862 302.536 211.313 300.488 215.068 298.44C235.206 288.2 250.652 276.766 261.404 264.136C272.156 251.507 278.385 240.072 280.092 229.832C282.481 216.862 283.42 205.598 282.908 196.04C282.396 186.483 281.116 180.339 279.068 177.608C274.972 171.806 274.118 167.795 276.508 165.576C278.897 163.358 285.041 163.614 294.94 166.344C305.18 169.075 311.324 171.976 313.372 175.048C315.42 178.12 315.078 182.046 312.348 186.824C311.324 188.531 310.556 190.152 310.044 191.688C309.532 193.224 309.105 195.016 308.764 197.064C308.422 199.112 307.996 201.672 307.484 204.744C306.972 207.816 306.374 211.912 305.692 217.032ZM241.692 241.096C235.206 236.318 230.342 231.88 227.1 227.784C223.857 223.688 220.358 218.568 216.604 212.424C214.897 209.694 214.641 207.39 215.836 205.512C217.03 203.635 219.334 203.038 222.748 203.72C235.718 205.768 244.678 209.267 249.628 214.216C254.577 219.166 256.71 225.395 256.028 232.904C255.345 237.683 253.468 240.67 250.396 241.864C247.324 243.059 244.422 242.803 241.692 241.096ZM345.116 221.64C342.044 223.347 339.74 223.518 338.204 222.152C336.668 220.787 337.265 218.739 339.996 216.008C346.822 209.182 351.942 203.208 355.356 198.088C358.769 192.968 360.988 187.848 362.012 182.728C363.036 177.95 365.51 174.792 369.436 173.256C373.361 171.72 379.761 173.342 388.636 178.12C397.51 182.558 402.46 186.568 403.484 190.152C404.508 193.736 402.63 196.382 397.852 198.088C393.756 199.795 386.502 202.782 376.092 207.048C365.681 211.315 355.356 216.179 345.116 221.64ZM170.012 465.864C166.257 466.206 164.294 465.352 164.124 463.304C163.953 461.256 165.745 459.379 169.5 457.672C184.177 451.187 196.806 444.702 207.388 438.216C217.969 431.731 227.1 424.99 234.78 417.992C242.46 410.995 248.774 403.571 253.724 395.72C258.673 387.87 262.854 379.336 266.268 370.12C271.388 355.784 274.118 344.008 274.46 334.792C274.801 325.576 273.777 317.896 271.388 311.752C268.657 304.584 268.316 299.72 270.364 297.16C272.412 294.6 277.873 294.686 286.748 297.416C297.329 300.488 303.473 303.646 305.18 306.888C306.886 310.131 306.886 314.312 305.18 319.432C304.156 321.822 303.217 324.723 302.364 328.136C301.51 331.55 300.572 335.646 299.548 340.424C315.59 357.15 330.609 371.742 344.604 384.2C358.598 396.659 372.337 407.496 385.82 416.712C399.302 425.928 413.041 433.864 427.036 440.52C441.03 447.176 455.878 452.723 471.58 457.16C477.724 458.867 480.881 461.256 481.052 464.328C481.222 467.4 478.236 469.278 472.092 469.96C452.977 471.667 437.958 472.691 427.036 473.032C416.113 473.374 407.494 473.203 401.18 472.52C394.865 471.838 390.257 470.558 387.356 468.68C384.454 466.803 381.809 464.328 379.42 461.256C373.617 454.43 367.302 446.75 360.476 438.216C353.649 429.683 346.566 420.808 339.228 411.592C331.889 402.376 324.55 393.075 317.212 383.688C309.873 374.302 302.961 365.512 296.476 357.32C293.404 371.315 288.113 384.627 280.604 397.256C273.094 409.886 263.878 421.064 252.956 430.792C242.033 440.52 229.574 448.456 215.58 454.6C201.585 460.744 186.396 464.499 170.012 465.864Z" fill="#000000" fill-rule="nonzero" opacity="1" stroke="none" vectornator:layerName="Curve"/>
</g>
</g>
</svg>
