<?xml version="1.0" encoding="UTF-8" standalone="no"?>
<!DOCTYPE svg PUBLIC "-//W3C//DTD SVG 1.1//EN" "http://www.w3.org/Graphics/SVG/1.1/DTD/svg11.dtd">
<!-- Created with Linearity Curve (http://linearity.io/curve) -->
<svg height="100%" stroke-miterlimit="10" style="fill-rule:nonzero;clip-rule:evenodd;stroke-linecap:round;stroke-linejoin:round;" version="1.1" viewBox="0 0 512 512" width="100%" xml:space="preserve" xmlns="http://www.w3.org/2000/svg" xmlns:vectornator="http://vectornator.io" xmlns:xlink="http://www.w3.org/1999/xlink">
<defs/>
<g id="Layer-2" vectornator:layerName="Layer 2">
<g opacity="1" vectornator:layerName="Group 1">
<path d="M441.408 91.4149C441.408 93.1216 440.555 94.6576 438.848 96.0229C437.142 97.3882 431.083 101.058 420.672 107.031C410.262 113.004 400.107 118.551 390.208 123.671C380.31 128.791 369.472 134.167 357.696 139.799C345.92 145.431 338.923 148.247 336.704 148.247C334.486 148.247 333.376 147.564 333.376 146.199C333.376 144.834 335.254 142.444 339.008 139.031C360.171 120.599 375.104 106.604 383.808 97.0469C392.512 87.4896 397.206 79.5536 397.888 73.2389C398.571 66.9242 401.131 63.7669 405.568 63.7669C408.299 63.7669 414.955 67.3509 425.536 74.5189C436.118 81.6869 441.408 87.3189 441.408 91.4149ZM256.576 146.711C256.576 152.514 255.552 157.634 253.504 162.071C251.456 166.508 248.555 168.727 244.8 168.727C237.632 168.727 228.502 160.876 217.408 145.175C206.315 129.474 200.768 119.063 200.768 113.943C200.768 111.212 202.475 109.847 205.888 109.847C212.715 109.847 222.87 112.748 236.352 118.551C249.835 124.354 256.576 133.74 256.576 146.711Z" fill="#000000" fill-rule="nonzero" opacity="1" stroke="none" vectornator:layerName="Curve"/>
<path d="M441.408 91.4149C441.408 93.1216 440.555 94.6576 438.848 96.0229C437.142 97.3882 431.083 101.058 420.672 107.031C410.262 113.004 400.107 118.551 390.208 123.671C380.31 128.791 369.472 134.167 357.696 139.799C345.92 145.431 338.923 148.247 336.704 148.247C334.486 148.247 333.376 147.564 333.376 146.199C333.376 144.834 335.254 142.444 339.008 139.031C360.171 120.599 375.104 106.604 383.808 97.0469C392.512 87.4896 397.206 79.5536 397.888 73.2389C398.571 66.9242 401.131 63.7669 405.568 63.7669C408.299 63.7669 414.955 67.3509 425.536 74.5189C436.118 81.6869 441.408 87.3189 441.408 91.4149ZM256.576 146.711C256.576 152.514 255.552 157.634 253.504 162.071C251.456 166.508 248.555 168.727 244.8 168.727C237.632 168.727 228.502 160.876 217.408 145.175C206.315 129.474 200.768 119.063 200.768 113.943C200.768 111.212 202.475 109.847 205.888 109.847C212.715 109.847 222.87 112.748 236.352 118.551C249.835 124.354 256.576 133.74 256.576 146.711Z" fill="#000000" fill-rule="nonzero" opacity="1" stroke="none" vectornator:layerName="Curve 1"/>
</g>
</g>
<g id="Layer-1" vectornator:layerName="Layer 1">
<g opacity="1" vectornator:layerName="Group 1">
<path d="M322.109 176.611C357.608 170.126 377.746 166.03 382.525 164.323C396.178 160.227 408.466 158.179 419.389 158.179C430.312 158.179 440.466 160.654 449.853 165.603C459.24 170.553 463.933 175.587 463.933 180.707C463.933 188.899 453.01 192.995 431.165 192.995L407.101 191.971C389.352 191.971 361.192 194.019 322.621 198.115C324.669 250.681 325.693 288.569 325.693 311.779C325.693 367.075 322.962 409.486 317.501 439.011C312.04 468.537 306.578 483.299 301.117 483.299C298.386 483.299 296.338 479.374 294.973 471.523C293.608 463.673 292.925 444.729 292.925 414.691C292.925 384.654 293.181 362.041 293.693 346.851C294.205 331.662 294.461 308.537 294.461 277.475C294.461 246.414 294.29 221.326 293.949 202.211C261.522 206.99 237.373 211.342 221.501 215.267C205.629 219.193 195.474 221.155 191.037 221.155C187.965 221.155 182.76 219.022 175.421 214.755C168.082 210.489 164.413 207.331 164.413 205.283C164.413 203.235 171.922 201.273 186.941 199.395C201.96 197.518 237.458 191.801 293.437 182.243C290.706 111.246 286.44 72.4192 280.637 65.7632C274.834 59.1072 271.933 53.6459 271.933 49.3792C271.933 45.1125 275.09 42.9792 281.405 42.9792C287.72 42.9792 297.789 45.5392 311.613 50.6592C325.437 55.7792 332.349 62.0939 332.349 69.6032C332.349 73.3579 330.472 80.3552 326.717 90.5952C325.693 93.6672 324.669 105.614 323.645 126.435C322.621 147.257 322.109 163.982 322.109 176.611ZM114.237 71.1392C119.698 71.1392 128.402 72.3339 140.349 74.7232C152.296 77.1125 161 81.1232 166.461 86.7552C171.922 92.3872 174.653 99.2139 174.653 107.235C174.653 115.257 173.544 121.059 171.325 124.643C169.106 128.227 166.29 130.019 162.877 130.019C156.392 130.019 145.725 121.315 130.877 103.907C116.029 86.4992 108.605 76.6859 108.605 74.4672C108.605 72.2485 110.482 71.1392 114.237 71.1392ZM62.0129 162.787C69.8636 162.787 81.2129 166.713 96.0609 174.563C110.909 182.414 118.333 192.995 118.333 206.307C118.333 219.619 113.981 226.275 105.277 226.275C96.5729 226.275 86.3329 217.315 74.5569 199.395C62.7809 181.475 56.8929 170.894 56.8929 167.651C56.8929 164.409 58.5996 162.787 62.0129 162.787ZM158.781 224.227C158.781 229.347 156.136 239.673 150.845 255.203C145.554 270.734 138.728 292.921 130.365 321.763C122.002 350.606 117.138 370.659 115.773 381.923C113.725 399.673 110.056 408.547 104.765 408.547C99.4743 408.547 92.3916 399.587 83.5169 381.667C74.6423 363.747 70.2049 352.398 70.2049 347.619C70.2049 342.841 72.7649 339.769 77.8849 338.403C83.0049 337.038 87.6983 333.71 91.9649 328.419C96.2316 323.129 103.997 310.926 115.261 291.811C126.525 272.697 135.57 256.057 142.397 241.891C149.224 227.726 154.173 220.643 157.245 220.643C158.269 220.643 158.781 221.838 158.781 224.227Z" fill="#000000" fill-rule="nonzero" opacity="1" stroke="none" vectornator:layerName="Curve"/>
</g>
</g>
</svg>
