<?xml version="1.0" encoding="UTF-8" standalone="no"?>
<!DOCTYPE svg PUBLIC "-//W3C//DTD SVG 1.1//EN" "http://www.w3.org/Graphics/SVG/1.1/DTD/svg11.dtd">
<!-- Created with Vectornator (http://vectornator.io/) -->
<svg height="512.0pt" stroke-miterlimit="10" style="fill-rule:nonzero;clip-rule:evenodd;stroke-linecap:round;stroke-linejoin:round;" version="1.1" viewBox="0 0 512 512" width="512.0pt" xml:space="preserve" xmlns="http://www.w3.org/2000/svg" xmlns:xlink="http://www.w3.org/1999/xlink">
<defs/>
<g id="Layer-1">
<g opacity="1">
<path d="M414.834 239.223C411.579 249.895 407.658 262.127 403.072 275.919C398.485 289.711 393.563 304.015 388.307 318.831C383.05 333.647 377.742 348.109 372.382 362.219C367.023 376.328 361.831 388.913 356.805 399.975L353.584 399.975C355.086 387.98 356.595 374.757 358.109 360.307C359.624 345.856 361.041 331.212 362.36 316.375C363.679 301.537 364.817 287.393 365.774 273.943C366.731 260.492 367.502 248.919 368.086 239.223L414.834 239.223ZM330.705 377.983C336.337 377.844 343.948 377.392 353.539 376.627C363.129 375.861 373.849 374.829 385.699 373.531C397.548 372.232 409.577 370.932 421.787 369.631L422.222 375.607C415.931 381.815 407.692 389.285 397.504 398.019C387.316 406.752 374.983 417.041 360.505 428.887C359.619 432.3 358.297 434.86 356.539 436.567C354.781 438.273 353.016 439.468 351.245 440.151L330.705 377.983ZM400.58 324.743C414.632 333.548 425.01 343.327 431.715 354.079C438.42 364.831 442.424 375.088 443.728 384.851C445.031 394.613 444.387 402.849 441.797 409.559C439.207 416.268 435.552 420.255 430.831 421.519C426.11 422.783 421.251 420.039 416.254 413.287C416.128 403.729 415.081 393.723 413.113 383.267C411.145 372.811 408.711 362.769 405.809 353.143C402.907 343.516 399.872 334.948 396.703 327.439L400.58 324.743ZM465.631 294.007L465.631 308.479L278.258 308.479L273.252 294.007L465.631 294.007ZM293.448 265.151L334.63 294.007L333.544 294.007L333.544 482.423C333.544 484.332 330.661 487.663 324.895 492.415C319.129 497.167 311.022 499.543 300.572 499.543L293.448 499.543L293.448 294.007L293.448 265.151ZM354.568 15.4225C369.377 14.7452 380.884 16.6719 389.092 21.2025C397.299 25.7332 402.889 31.3932 405.863 38.1825C408.836 44.9719 409.792 51.8519 408.731 58.8225C407.67 65.7932 405.162 71.6999 401.206 76.5425C397.25 81.3852 392.488 83.9892 386.919 84.3545C381.35 84.7199 375.503 81.7425 369.377 75.4225C368.857 64.7292 366.849 54.1385 363.352 43.6505C359.855 33.1625 356.063 24.6759 351.977 18.1905L354.568 15.4225ZM356.612 110.791C356.382 113.569 355.334 116.056 353.466 118.251C351.598 120.445 348.293 122.079 343.551 123.151L343.551 164.967C343.092 164.967 341.851 164.967 339.827 164.967C337.804 164.967 334.18 164.967 328.955 164.967C323.73 164.967 316.008 164.967 305.788 164.967L305.788 134.319L305.788 103.663L356.612 110.791ZM334.157 124.199L343.551 132.591L343.551 244.855L345.96 244.855L335.458 270.335L297.685 239.087C299.492 235.513 301.886 231.647 304.869 227.487C307.851 223.327 310.588 220.417 313.079 218.759L305.788 237.215L305.788 124.199L334.157 124.199ZM440.617 294.007L458.797 262.935L499.049 307.855C498.131 309.86 496.487 311.949 494.116 314.123C491.744 316.296 488.74 317.871 485.101 318.847L485.101 430.679C485.101 443.457 483.932 454.496 481.593 463.795C479.254 473.093 474.44 480.557 467.153 486.187C459.865 491.816 448.686 495.631 433.616 497.631C433.157 488.564 432.412 480.575 431.379 473.663C430.347 466.751 428.585 461.089 426.094 456.679C423.767 452.609 420.565 448.899 416.488 445.547C412.41 442.195 406.304 439.564 398.171 437.655L398.171 430.719C398.171 430.719 399.743 430.889 402.886 431.231C406.03 431.572 409.919 431.937 414.554 432.327C419.189 432.716 423.637 433.081 427.898 433.423C432.158 433.764 435.304 433.935 437.337 433.935C439.954 433.935 441.728 433.081 442.66 431.375C443.592 429.668 444.058 427.401 444.058 424.575L444.058 294.007L440.617 294.007ZM483.423 113.023C483.165 115.887 482.359 118.367 481.004 120.463C479.649 122.559 477.089 123.948 473.325 124.631L473.325 252.783C473.325 254.1 471.71 255.823 468.478 257.951C465.246 260.079 461.225 261.961 456.415 263.599C451.604 265.236 446.777 266.055 441.934 266.055L434.67 266.055L434.67 106.639L483.423 113.023ZM459.625 230.383L459.625 244.855L324.269 244.855L324.269 230.383L459.625 230.383ZM438.364 122.751C437.643 125.14 436.374 127.068 434.554 128.535C432.735 130.001 429.875 130.519 425.975 130.087C420.896 142.716 414.477 155.061 406.72 167.123C398.963 179.184 390.085 190.085 380.088 199.827C370.09 209.568 358.935 217.409 346.621 223.351L343.868 216.487C353.02 207.116 361.144 195.867 368.239 182.739C375.335 169.611 381.376 155.68 386.36 140.947C391.345 126.213 395.039 111.996 397.445 98.2945L438.364 122.751ZM347.417 133.119C367.62 135.679 383.763 140.836 395.845 148.591C407.927 156.345 416.645 164.892 421.999 174.231C427.353 183.569 430.065 192.368 430.134 200.627C430.204 208.885 428.272 215.032 424.338 219.067C420.404 223.101 415.198 223.607 408.72 220.583C404.361 211.617 398.467 202.019 391.038 191.787C383.609 181.555 375.79 171.665 367.581 162.119C359.372 152.572 351.702 144.508 344.572 137.927L347.417 133.119ZM461.044 37.7665C461.044 37.7665 462.351 39.3079 464.964 42.3905C467.577 45.4732 470.898 49.5092 474.925 54.4985C478.952 59.4879 483.202 64.7465 487.674 70.2745C492.146 75.8025 496.223 81.0332 499.904 85.9665C498.986 91.4279 495.807 94.1585 490.365 94.1585L291.055 94.1585L288.302 79.6865L439.289 79.6865L461.044 37.7665ZM250.647 74.7185L250.647 388.999L208.12 407.239L208.12 74.7185L250.647 74.7185ZM170.728 392.719C177.381 390.58 186.997 387.263 199.576 382.767C212.154 378.271 226.282 372.835 241.957 366.459C257.633 360.083 273.569 353.537 289.764 346.823L290.636 351.775C281.778 363.263 270.128 377.529 255.688 394.575C241.247 411.62 223.52 430.953 202.506 452.575C200.99 460.196 197.948 465.177 193.381 467.519L170.728 392.719ZM264.337 180.215C264.337 180.215 265.953 182.807 269.187 187.991C272.42 193.175 276.227 199.264 280.607 206.259C284.988 213.253 288.768 219.729 291.948 225.687C291.03 231.148 288.047 233.879 283 233.879L178.094 233.879L175.341 219.407L248.582 219.407L264.337 180.215ZM259.97 28.2225C259.97 28.2225 261.277 29.8359 263.89 33.0625C266.503 36.2892 269.767 40.3985 273.682 45.3905C277.596 50.3825 281.731 55.7159 286.087 61.3905C290.442 67.0652 294.362 72.3479 297.846 77.2385C296.928 82.6999 293.763 85.4305 288.35 85.4305L175.594 85.4305L172.841 70.9505L238.86 70.9505L259.97 28.2225Z" fill="#000000" fill-rule="nonzero" opacity="1" stroke="none"/>
</g>
</g>
<g id="Layer-2">
<g opacity="1">
<path d="M18.399 87.51L18.399 57.5601L18.399 57.5601L69.7754 87.51L117.504 87.51L117.504 104.661L67.9347 104.661L67.9347 444.102C67.9347 446.719 65.9806 449.973 62.0723 453.863C58.164 457.753 53.0691 461.195 46.7875 464.188C40.5059 467.18 33.6861 468.677 26.328 468.677L18.399 468.677L18.399 87.51ZM101.828 87.51L97.5132 87.51L121.597 50.165L170.728 103.845C169.325 106.273 167.148 108.685 164.195 111.084C161.241 113.483 157.607 115.26 153.292 116.417L153.292 410.654C153.041 412.215 150.549 414.606 145.818 417.826C141.088 421.047 135.447 423.904 128.895 426.397C122.344 428.891 116.176 430.137 110.391 430.137L101.828 430.137L101.828 87.51ZM47.3842 360.065L119.513 360.065L119.513 377.13L47.3842 377.13L47.3842 360.065Z" fill="#000000" fill-rule="nonzero" opacity="1" stroke="none"/>
</g>
</g>
</svg>
