<?xml version="1.0" encoding="UTF-8" standalone="no"?>
<!DOCTYPE svg PUBLIC "-//W3C//DTD SVG 1.1//EN" "http://www.w3.org/Graphics/SVG/1.1/DTD/svg11.dtd">
<!-- Created with Vectornator (http://vectornator.io/) -->
<svg height="512.0pt" stroke-miterlimit="10" style="fill-rule:nonzero;clip-rule:evenodd;stroke-linecap:round;stroke-linejoin:round;" version="1.1" viewBox="0 0 512 512" width="512.0pt" xml:space="preserve" xmlns="http://www.w3.org/2000/svg" xmlns:vectornator="http://vectornator.io" xmlns:xlink="http://www.w3.org/1999/xlink">
<defs/>
<g id="Layer-2" vectornator:layerName="Layer 2">
<path d="M186.908 308.09C183.836 305.36 180.508 302.373 176.924 299.13C173.34 295.888 170.182 292.73 167.452 289.658C167.11 312.186 167.025 331.984 167.196 349.05C167.366 366.117 167.281 378.234 166.94 385.402C166.598 389.84 166.428 393.936 166.428 397.69C166.428 401.445 166.257 404.858 165.916 407.93C166.598 407.589 163.356 433.104 162.332 437.37C161.308 441.637 160.113 445.818 158.748 449.914C153.969 464.25 148.422 471.845 142.108 472.698C135.793 473.552 129.564 468.688 123.42 458.106C118.641 449.573 114.886 442.32 112.156 436.346C109.425 430.373 107.718 424.997 107.036 420.218C106.353 415.44 106.609 410.832 107.804 406.394C108.998 401.957 110.961 397.178 113.692 392.058C115.057 389.328 116.508 385.573 118.044 380.794C119.58 376.016 120.86 369.786 121.884 362.106C122.908 354.426 123.846 345.04 124.7 333.946C125.553 322.853 126.321 309.285 127.004 293.242C116.422 313.04 104.39 329.765 90.9077 343.418C77.4251 357.072 61.9797 368.506 44.5717 377.722C26.1397 387.621 15.7291 390.437 13.3397 386.17C10.9504 381.904 18.1184 371.408 34.8437 354.682C40.9877 348.538 47.8144 340.432 55.3237 330.362C62.8331 320.293 70.4277 309.285 78.1077 297.338C85.7877 285.392 93.0411 273.018 99.8677 260.218C106.694 247.418 112.497 235.045 117.276 223.098C96.4544 226.17 80.6677 227.962 69.9157 228.474C59.1637 228.986 50.5451 228.389 44.0597 226.682C28.6997 222.586 21.0197 218.405 21.0197 214.138C21.0197 209.872 29.0411 206.544 45.0837 204.154C54.9824 202.789 67.0997 200.57 81.4357 197.498C95.7717 194.426 111.644 190.33 129.052 185.21C129.052 163.706 128.881 146.298 128.54 132.986C128.198 119.674 127.43 108.837 126.236 100.474C125.041 92.1116 123.334 85.4556 121.116 80.5063C118.897 75.5569 115.91 70.5223 112.156 65.4023C103.281 53.7969 101.233 45.8609 106.012 41.5943C110.79 37.3276 124.273 38.7783 146.46 45.9463C157.382 49.7009 165.916 53.1143 172.06 56.1863C178.204 59.2583 182.385 62.4156 184.604 65.6583C186.822 68.9009 187.59 72.3996 186.908 76.1543C186.225 79.9089 184.689 84.1756 182.3 88.9543C179.569 94.4156 177.35 99.6209 175.644 104.57C173.937 109.52 172.657 115.152 171.804 121.466C170.95 127.781 170.353 134.949 170.012 142.97C169.67 150.992 169.5 160.805 169.5 172.41C177.009 170.704 184.177 170.021 191.004 170.362C197.83 170.704 203.121 171.898 206.876 173.946C218.14 179.749 223.26 185.637 222.236 191.61C221.212 197.584 213.532 202.277 199.196 205.69C193.393 207.056 187.932 208.421 182.812 209.786C177.692 211.152 172.742 212.517 167.964 213.882C167.964 220.368 167.878 226.768 167.708 233.082C167.537 239.397 167.452 245.626 167.452 251.77C197.148 256.549 213.02 266.618 215.068 281.978C216.092 288.805 215.75 294.522 214.044 299.13C212.337 303.738 210.033 307.152 207.132 309.37C204.23 311.589 200.902 312.613 197.148 312.442C193.393 312.272 189.98 310.821 186.908 308.09Z" fill="#000000" fill-rule="nonzero" opacity="1" stroke="none" vectornator:layerName="Curve 1"/>
<path d="M482.157 261.24C494.104 265.677 499.736 270.114 499.053 274.552C498.37 278.989 491.714 282.402 479.085 284.792C461.336 287.864 447.085 290.082 436.333 291.448C425.581 292.813 416.536 292.728 409.197 291.192C401.858 289.656 395.288 286.498 389.485 281.72C383.682 276.941 377.026 270.114 369.517 261.24C359.618 249.293 349.89 236.92 340.333 224.12C330.776 211.32 321.218 198.264 311.661 184.952C305.176 201.336 299.202 215.416 293.741 227.192C288.28 238.968 282.648 249.464 276.845 258.68C271.042 267.896 264.728 276.258 257.901 283.768C251.074 291.277 243.394 298.957 234.861 306.808C222.573 317.73 215.064 322.68 212.333 321.656C209.602 320.632 211.456 315.509 217.259 305.269C215.706 308.091 224.142 292.259 221.037 297.592C227.522 287.352 233.24 277.453 238.189 267.896C243.138 258.338 247.746 247.586 252.013 235.64C256.28 223.693 260.717 209.784 265.325 193.912C269.933 178.04 275.309 158.498 281.453 135.288C285.549 119.928 287.512 106.872 287.341 96.1197C287.17 85.3677 284.696 75.3837 279.917 66.1677C274.114 54.221 273.517 46.541 278.125 43.1277C282.733 39.7143 293.912 42.6157 311.661 51.8317C322.925 57.6343 331.544 62.413 337.517 66.1677C343.49 69.9223 347.672 73.165 350.061 75.8957C352.45 78.6263 353.474 81.101 353.133 83.3197C352.792 85.5383 351.768 88.1837 350.061 91.2557C346.648 97.0583 343.576 102.776 340.845 108.408C338.114 114.04 335.384 120.61 332.653 128.12C330.946 132.898 329.325 137.592 327.789 142.2C326.253 146.808 324.632 151.16 322.925 155.256C336.92 169.933 350.061 182.648 362.349 193.4C374.637 204.152 387.01 213.624 399.469 221.816C411.928 230.008 424.813 237.261 438.125 243.576C451.437 249.89 466.114 255.778 482.157 261.24ZM361.325 322.168C362.69 329.336 362.69 335.394 361.325 340.344C359.96 345.293 357.656 349.048 354.413 351.608C351.17 354.168 346.989 355.192 341.869 354.68C336.749 354.168 331.117 352.034 324.973 348.28C320.194 345.208 313.794 340.258 305.773 333.432C297.752 326.605 289.986 319.437 282.477 311.928C272.237 301.005 267.629 293.837 268.653 290.424C269.677 287.01 276.674 285.645 289.645 286.328C302.957 287.352 313.965 288.546 322.669 289.912C331.373 291.277 338.37 293.24 343.661 295.8C348.952 298.36 352.877 301.773 355.437 306.04C357.997 310.306 359.96 315.682 361.325 322.168ZM369.517 439.928C369.858 446.754 368.834 452.642 366.445 457.592C364.056 462.541 360.984 466.04 357.229 468.088C353.474 470.136 349.208 470.733 344.429 469.88C339.65 469.026 335.042 466.381 330.605 461.944C324.461 455.8 316.866 447.608 307.821 437.368C298.776 427.128 288.45 415.522 276.845 402.552C268.653 393.336 265.496 386.936 267.373 383.352C269.25 379.768 277.357 379.341 291.693 382.072C307.736 384.802 320.792 387.618 330.861 390.52C340.93 393.421 348.781 397.005 354.413 401.272C360.045 405.538 363.885 410.744 365.933 416.888C367.981 423.032 369.176 430.712 369.517 439.928Z" fill="#000000" fill-rule="nonzero" opacity="1" stroke="none"/>
</g>
</svg>
