<?xml version="1.0" encoding="UTF-8" standalone="no"?>
<!DOCTYPE svg PUBLIC "-//W3C//DTD SVG 1.1//EN" "http://www.w3.org/Graphics/SVG/1.1/DTD/svg11.dtd">
<!-- Created with Vectornator (http://vectornator.io/) -->
<svg height="512.0pt" stroke-miterlimit="10" style="fill-rule:nonzero;clip-rule:evenodd;stroke-linecap:round;stroke-linejoin:round;" version="1.1" viewBox="0 0 512 512" width="512.0pt" xml:space="preserve" xmlns="http://www.w3.org/2000/svg" xmlns:xlink="http://www.w3.org/1999/xlink">
<defs/>
<g id="Layer-1">
<g opacity="1">
<path d="M173.944 356.757C171.011 385.574 164.488 409.347 154.372 428.076C144.257 446.805 130.637 461.514 113.513 472.202C96.3889 482.89 75.7116 491.016 51.4811 496.579L50.5029 489.812C69.452 481.124 85.0141 470.843 97.1894 458.969C109.365 447.095 118.743 432.866 125.326 416.282C131.908 399.697 136.085 379.856 137.856 356.757L173.944 356.757ZM212.319 356.889C212.319 359.528 212.319 362.229 212.319 364.99C212.319 367.751 212.319 370.243 212.319 372.465L212.319 434.692C212.319 437.709 212.859 439.783 213.94 440.914C215.02 442.046 217.97 442.612 222.791 442.612L250.499 442.612C255.46 442.612 260.135 442.6 264.526 442.577C268.917 442.554 272.164 442.377 274.266 442.047C277.864 442.047 280.436 440.849 281.984 438.451C283.382 436.095 285.019 432.275 286.894 426.993C288.769 421.711 290.673 415.329 292.607 407.848L295.848 407.848L297.055 438.157C301.548 440.333 304.583 442.866 306.162 445.756C307.74 448.646 308.529 452.246 308.529 456.556C308.529 462.754 306.917 467.71 303.692 471.425C300.467 475.14 294.492 477.767 285.765 479.306C277.038 480.845 264.204 481.614 247.263 481.614L215.803 481.614C206.201 481.614 198.91 480.454 193.93 478.134C188.95 475.814 185.613 471.779 183.918 466.03C182.222 460.281 181.375 452.274 181.375 442.009L181.375 356.889L212.319 356.889ZM194.961 272.24L194.961 360.353L161.594 360.353L161.594 272.24L194.961 272.24ZM285.346 163.555C285.139 166.478 284.308 168.93 282.855 170.91C281.402 172.89 279.548 174.21 277.293 174.87L277.293 198.899C277.293 202.859 277.867 204.839 279.015 204.839L279.108 204.839C279.014 204.839 278.926 204.839 278.845 204.839C278.764 204.839 278.84 204.839 279.074 204.839C279.489 204.839 280.033 204.839 280.704 204.839C281.376 204.839 281.904 204.839 282.29 204.839C282.913 204.555 283.678 204.331 284.585 204.166C285.492 204.001 286.256 203.753 286.879 203.423L289.911 203.423L290.801 203.849C293.653 205.365 295.702 206.892 296.947 208.431C298.193 209.97 298.816 212.488 298.816 215.983C298.816 222.557 296.906 227.119 293.086 229.669C289.266 232.218 283.653 233.493 276.247 233.493L271.239 233.493C264.488 233.493 260.244 231.295 258.507 226.9C256.77 222.504 255.901 215.457 255.901 205.759L255.901 158.605L285.346 163.555ZM174.046 166.757C173.839 169.68 173.008 172.12 171.555 174.077C170.102 176.034 168.247 177.342 165.993 178.002L165.993 188.118C165.993 190.428 166.103 191.995 166.324 192.82C166.544 193.645 166.711 194.058 166.825 194.058L164.737 194.058C164.076 194.058 163.503 194.058 163.02 194.058C162.536 194.058 162.398 194.058 162.606 194.058C163.021 194.058 163.564 194.058 164.234 194.058C164.904 194.058 165.342 194.058 165.55 194.058C166.147 193.769 166.898 193.542 167.803 193.377C168.708 193.212 169.459 192.964 170.056 192.634L173.127 192.634L174.061 193.068C176.883 194.583 178.911 196.121 180.144 197.681C181.377 199.241 181.993 201.627 181.993 204.839C181.993 211.413 180.149 215.75 176.462 217.851C172.775 219.952 167.837 221.003 161.647 221.003L158.776 221.003C152.411 221.003 148.413 218.804 146.781 214.406C145.149 210.008 144.333 203.245 144.333 194.119L144.333 161.807L174.046 166.757ZM220.397 164.119C220.189 166.759 219.366 169.234 217.927 171.544C216.489 173.854 214.331 175.339 211.453 175.999C211.038 182.464 210.176 189.623 208.869 197.476C207.562 205.329 205.278 213.12 202.017 220.852C198.757 228.583 193.797 235.749 187.137 242.348L182.689 235.713C185.119 227.886 186.785 219.727 187.689 211.235C188.592 202.743 189.093 194.17 189.19 185.515C189.287 176.861 189.336 168.453 189.336 160.291L220.397 164.119ZM112.129 164.839C111.921 167.478 111.142 169.882 109.793 172.051C108.443 174.219 106.315 175.633 103.408 176.293C102.993 184.908 102.221 193.582 101.092 202.314C99.9631 211.045 97.7174 219.179 94.3548 226.714C90.9923 234.25 85.7246 241.077 78.5518 247.198L74.3766 240.198C77.1374 233.088 79.0522 225.53 80.1212 217.522C81.1901 209.515 81.8251 200.745 82.0263 191.211C82.2274 181.678 82.328 171.469 82.328 160.585L112.129 164.839ZM145.234 108.667C145.026 111.023 144.382 113.119 143.302 114.955C142.221 116.79 140.213 118.061 137.277 118.767L137.277 231.459C137.277 232.738 136.175 234.261 133.971 236.03C131.766 237.798 129.032 239.403 125.769 240.844C122.505 242.285 119.235 243.006 115.958 243.006L110.727 243.006L110.727 103.354L145.234 108.667ZM255.828 108.667C255.62 111.023 255.021 113.048 254.03 114.742C253.039 116.436 251.077 117.636 248.144 118.342L248.144 228.891C248.144 229.881 246.907 231.333 244.431 233.246C241.956 235.158 238.907 236.906 235.285 238.489C231.663 240.072 228.034 240.864 224.397 240.864L218.898 240.864L218.898 102.928L255.828 108.667ZM270.222 106.354C270.222 106.354 271.775 108.421 274.879 112.553C277.984 116.686 281.685 121.693 285.981 127.576C290.278 133.459 294.046 139.115 297.283 144.545C296.66 149.824 293.974 152.464 289.225 152.464L183.219 152.464L180.728 138.474L255.234 138.474L270.222 106.354ZM158.061 111.265C158.061 111.265 159.376 113.035 162.005 116.575C164.634 120.114 167.814 124.445 171.543 129.568C175.272 134.69 178.561 139.683 181.409 144.545C180.608 149.824 177.923 152.464 173.355 152.464L75.233 152.464L72.7415 138.474L145.316 138.474L158.061 111.265ZM265.161 381.614C264.331 384.254 262.514 386.564 259.711 388.544C256.908 390.524 252.808 389.864 247.409 386.564L256.626 383.594C252.766 389.668 247.898 396.292 242.023 403.466C236.147 410.641 230.718 416.34 225.735 420.562L225.692 414.066L235.137 414.066C234.572 422.991 233.287 429.884 231.28 434.746C229.274 439.608 227.184 442.821 225.01 444.383L215.273 408.753C215.273 408.753 215.992 408.423 217.431 407.763C218.87 407.103 219.992 406.608 220.796 406.278C223.19 403.921 225.527 399.895 227.806 394.197C230.085 388.5 232.149 382.471 233.998 376.111C235.847 369.751 237.126 364.713 237.833 360.995L265.161 381.614ZM219.054 410.802C225.224 411.039 233.425 410.653 243.655 409.642C253.886 408.631 264.13 407.136 274.388 405.156L274.738 413.633C271.624 415.525 267.354 417.995 261.928 421.042C256.502 424.089 250.55 427.052 244.071 429.932C237.593 432.812 231.135 435.383 224.699 437.647L219.054 410.802ZM257.366 389.077C265.71 393.259 271.75 398.166 275.487 403.799C279.225 409.432 281.26 414.947 281.595 420.346C281.929 425.744 281.142 430.248 279.234 433.857C277.327 437.466 274.796 439.469 271.643 439.866C268.49 440.263 265.322 438.263 262.139 433.865C262.178 426.605 261.331 419.031 259.597 411.142C257.863 403.254 255.86 396.767 253.59 391.684L257.366 389.077ZM250.718 308.412L250.718 322.403L104.284 322.403L104.284 308.412L250.718 308.412ZM202.421 238.884C201.244 246.298 197.091 250.299 189.964 250.887C186.064 253.944 181.225 257.464 175.445 261.447C169.666 265.43 164.617 268.951 160.299 272.008L150.377 272.008C151.016 265.543 151.705 257.559 152.443 248.056C153.181 238.554 153.766 230.216 154.197 223.044L202.421 238.884ZM118.669 378.172C118.669 379.688 117.2 381.809 114.263 384.534C111.325 387.259 107.589 389.687 103.053 391.819C98.5179 393.951 93.8658 395.017 89.0969 395.017L84.2209 395.017L84.2209 265.148L84.2209 242.07L84.2209 242.07L120.766 265.148L244.957 265.148L244.957 279.139L118.669 279.139L118.669 378.172ZM233.147 265.148L250.032 236.038L285.488 278.474C284.631 280.454 283.13 282.41 280.984 284.344C278.838 286.277 276.131 287.739 272.865 288.729L272.865 362.844C272.865 364.117 271.157 366.056 267.743 368.66C264.328 371.263 260.302 373.56 255.663 375.551C251.023 377.541 246.616 378.536 242.441 378.536L236.261 378.536L236.261 265.148L233.147 265.148ZM250.592 351.382L250.592 365.373L105.506 365.373L105.506 351.382L250.592 351.382ZM143.959 28.6279C156.52 26.6119 166.407 27.0515 173.621 29.9466C180.834 32.8417 185.904 37.1469 188.83 42.8623C191.756 48.5777 192.978 54.6282 192.497 61.0139C192.015 67.3996 190.26 72.9938 187.231 77.7966C184.203 82.5994 180.304 85.5564 175.533 86.6675C170.763 87.7786 165.681 85.916 160.29 81.0797C159.112 71.8711 156.667 62.5929 152.954 53.2452C149.241 43.8974 145.474 36.6068 141.652 31.3735L143.959 28.6279ZM31.734 78.1795L31.734 59.85L73.0627 83.1292L67.525 83.1292L67.525 220.918C67.525 242.562 67.1235 265.543 66.3206 289.858C65.5176 314.174 63.3838 338.656 59.9191 363.304C56.4543 387.952 50.9596 411.703 43.4348 434.557C35.91 457.411 25.4387 478.34 12.0209 497.345L8.29827 494.043C16.0258 467.098 21.5165 438.339 24.7704 407.766C28.0243 377.194 29.9983 345.988 30.6926 314.147C31.3868 282.306 31.734 251.395 31.734 221.413L31.734 83.1292L31.734 78.1795ZM273.595 40.6233C273.595 40.6233 274.784 42.1959 277.164 45.341C279.543 48.4862 282.615 52.5646 286.378 57.5762C290.141 62.5878 294.059 67.9191 298.132 73.57C302.205 79.221 305.848 84.4311 309.06 89.2004C308.229 94.4801 305.335 97.12 300.378 97.12L57.5249 97.12L57.5249 83.1292L254.008 83.1292L273.595 40.6233Z" fill="#000000" fill-rule="nonzero" opacity="1" stroke="none"/>
</g>
</g>
<g id="Layer-2">
<g opacity="1">
<path d="M299.885 226.423L453.452 226.423L469.286 178.431C469.286 178.431 470.254 180.217 472.19 183.789C474.127 187.362 476.602 191.907 479.616 197.427C482.63 202.947 485.773 208.81 489.044 215.017C492.314 221.225 495.356 227.111 498.17 232.676C497.619 238.177 495.525 240.927 491.888 240.927L301.62 240.927L299.885 226.423ZM317.717 117.231L439.51 117.231L454.734 71.229C454.734 71.229 455.671 72.9305 457.545 76.3336C459.419 79.7367 461.793 84.049 464.666 89.2705C467.54 94.492 470.581 100.12 473.789 106.156C476.998 112.191 479.885 117.991 482.452 123.557C482.168 126.259 481.467 128.297 480.349 129.673C479.231 131.048 477.89 131.735 476.327 131.735L319.423 131.735L317.717 117.231ZM383.754 18.16L420.169 26.8141C420.007 30.2521 419.393 33.2604 418.327 35.8389C417.261 38.4174 415.256 40.2224 412.312 41.2538L412.312 480.939C412.312 483.206 411.121 486.239 408.741 490.04C406.361 493.841 403.404 497.236 399.87 500.225C396.336 503.215 392.772 504.709 389.177 504.709L383.754 504.709L383.754 18.16ZM370.705 226.423L403.888 226.423L403.888 234.602C394.8 284.99 381.321 330.057 363.452 369.801C345.583 409.545 324.091 442.229 298.976 467.853L297.184 462.212C308.668 442.755 319.2 420.101 328.78 394.248C338.36 368.396 346.721 340.998 353.863 312.054C361.005 283.11 366.619 254.567 370.705 226.423ZM413.394 226.423C417.469 246.939 422.676 265.885 429.015 283.263C435.354 300.642 442.425 316.36 450.228 330.418C458.031 344.476 466.25 356.633 474.885 366.888C483.52 377.143 492.233 385.252 501.024 391.215L500.598 397.266C495.149 400.237 490.394 407.135 486.334 417.963C482.274 428.79 479.316 442.479 477.46 459.029C466.273 443.993 456.421 425.663 447.905 404.039C439.388 382.414 432.119 357.024 426.097 327.868C420.075 298.712 415.054 265.721 411.033 228.897L413.394 226.423Z" fill="#000000" fill-rule="nonzero" opacity="1" stroke="none"/>
</g>
</g>
</svg>
